<?xml version="1.0" standalone="no"?>
<!DOCTYPE svg PUBLIC "-//W3C//DTD SVG 20010904//EN"
 "http://www.w3.org/TR/2001/REC-SVG-20010904/DTD/svg10.dtd">
<svg version="1.0" xmlns="http://www.w3.org/2000/svg"
 width="232.000000pt" height="232.000000pt" viewBox="0 0 232.000000 232.000000"
 preserveAspectRatio="xMidYMid meet">
<metadata>
Created by potrace 1.14, written by Peter Selinger 2001-2017
</metadata>
<g transform="translate(0.000000,232.000000) scale(0.100000,-0.100000)"
fill="#000000" stroke="none">
<path d="M0 1160 l0 -1160 1160 0 1160 0 0 1160 0 1160 -1160 0 -1160 0 0
-1160z m1533 690 c38 -30 42 -63 39 -274 l-3 -189 -34 50 c-79 118 -242 204
-387 206 -43 0 -75 3 -72 6 3 3 87 54 187 113 194 114 224 124 270 88z m-764
-420 c-22 -32 -52 -87 -67 -122 -23 -56 -26 -76 -26 -173 0 -118 15 -170 70
-242 21 -28 -4 -16 -178 83 -112 64 -213 127 -226 141 -28 31 -28 74 1 100 12
11 92 61 177 110 85 50 182 106 215 126 33 20 63 36 67 37 3 0 -11 -27 -33
-60z m501 8 c84 -36 140 -113 140 -192 0 -57 -8 -76 -31 -76 -11 0 -96 44
-190 97 -153 88 -170 100 -167 122 2 16 15 32 37 45 62 36 133 37 211 4z m-58
-344 c148 -85 277 -154 286 -152 10 2 29 26 44 53 l28 50 0 -273 c0 -259 -1
-273 -20 -292 -38 -38 -73 -27 -275 90 -104 60 -197 113 -205 118 -9 6 5 7 41
4 30 -2 80 1 110 7 69 15 157 55 166 77 7 18 -41 115 -70 141 -16 16 -21 15
-61 -4 -64 -32 -125 -38 -188 -19 -146 42 -221 155 -188 283 13 53 26 73 47
73 8 0 136 -70 285 -156z m623 -654 c-3 -5 -12 -10 -18 -10 -7 0 -6 4 3 10 19
12 23 12 15 0z m38 3 c-7 -2 -13 -10 -13 -18 0 -7 -8 -19 -17 -26 -15 -11 -16
-11 -5 1 6 8 12 22 12 32 0 11 7 18 18 17 10 0 12 -3 5 -6z m37 -57 c0 -2 -9
-6 -20 -9 -11 -3 -18 -1 -14 4 5 9 34 13 34 5z m-80 -36 c-8 -5 -19 -10 -25
-10 -5 0 -3 5 5 10 8 5 20 10 25 10 6 0 3 -5 -5 -10z"/>
</g>
</svg>
